<?xml version="1.0" standalone="no"?>
<!DOCTYPE svg PUBLIC "-//W3C//DTD SVG 20010904//EN"
 "http://www.w3.org/TR/2001/REC-SVG-20010904/DTD/svg10.dtd">
<svg version="1.0" xmlns="http://www.w3.org/2000/svg"
 width="2000.000000pt" height="900.000000pt" viewBox="0 0 1744.000000 739.000000"
 preserveAspectRatio="xMidYMid meet" style="background-color:white">

<g transform="translate(0.000000,739.000000) scale(0.100000,-0.100000)"
fill="#000000" stroke="none" >
<path d="M13913 7358 c-6 -18 -104 -287 -218 -598 -113 -311 -321 -880 -462
-1265 -140 -385 -288 -790 -328 -900 -40 -110 -162 -443 -270 -740 -108 -297
-198 -542 -200 -544 -2 -2 -41 28 -86 67 -139 119 -298 197 -558 273 -214 62
-681 159 -770 159 -51 0 -10 11 75 20 256 29 571 149 826 315 412 269 673 617
761 1015 28 128 29 374 3 505 -68 343 -248 655 -511 887 -295 261 -733 464
-1210 562 -264 55 -211 54 -1933 48 l-1593 -5 5 -23 c4 -13 11 -35 16 -49 l10
-25 410 0 410 0 0 -3415 0 -3415 -420 0 -420 0 0 -35 0 -35 1375 0 1375 0 0
45 0 45 -417 2 -418 3 -3 1748 -2 1748 672 -4 673 -3 120 -27 c215 -47 421
-127 525 -201 26 -19 61 -41 78 -50 49 -25 142 -116 202 -197 65 -88 145 -238
195 -367 l34 -90 1 -388 c0 -214 4 -445 9 -513 10 -148 45 -32 -288 -949 -133
-364 -241 -667 -241 -672 0 -5 -7 -16 -16 -24 -14 -14 -57 -16 -346 -16 -182
1 -333 -1 -335 -4 -3 -2 -2 -14 2 -25 6 -21 7 -21 701 -21 l694 0 0 25 0 25
-326 0 -326 0 5 23 c4 12 116 323 249 691 199 549 244 663 250 640 4 -16 14
-87 23 -157 50 -391 152 -713 290 -922 57 -85 204 -235 291 -295 197 -136 396
-199 649 -205 72 -2 173 -9 225 -15 345 -44 688 111 882 397 27 40 46 73 44
73 -3 0 -42 -30 -88 -66 -107 -87 -170 -127 -292 -185 -324 -154 -490 -119
-719 152 -95 112 -118 149 -137 219 -37 133 -41 212 -50 885 -8 678 -14 772
-52 945 -11 52 -23 107 -25 122 l-5 28 828 0 829 0 202 -558 c413 -1137 631
-1737 638 -1754 7 -17 -16 -18 -399 -18 l-406 0 0 -30 0 -30 1410 0 1410 0 0
35 0 35 -439 0 c-339 0 -441 3 -448 13 -6 6 -43 102 -83 212 -40 110 -122 335
-182 500 -60 165 -170 464 -243 665 -142 388 -414 1134 -572 1565 -52 143
-146 400 -208 570 -127 347 -332 909 -705 1930 -138 380 -312 854 -385 1055
-209 572 -213 582 -233 602 -18 18 -19 18 -29 -14z m-3333 -326 c109 -34 262
-110 365 -183 104 -74 315 -280 397 -389 63 -83 88 -151 152 -406 136 -542
153 -1098 45 -1483 -99 -352 -329 -587 -659 -672 -82 -21 -111 -22 -790 -29
-388 -4 -711 -5 -717 -2 -10 3 -13 332 -13 1599 l0 1594 573 -3 c561 -4 573
-4 647 -26z m2864 -1307 c16 -44 52 -145 81 -225 30 -80 110 -300 178 -490
170 -470 680 -1875 777 -2140 43 -118 76 -218 73 -222 -2 -5 -372 -8 -822 -8
-643 0 -821 3 -828 13 -6 6 -23 41 -39 77 -75 172 -179 319 -360 511 l-25 26
259 714 c143 393 351 967 463 1276 112 309 207 559 210 555 3 -4 18 -43 33
-87z"/>
<path d="M5989 7246 c-508 -106 -950 -502 -1294 -1160 -226 -432 -396 -1000
-475 -1588 -59 -442 -67 -1032 -20 -1468 85 -778 308 -1479 638 -2001 l80
-127 -52 -55 c-224 -244 -626 -459 -1070 -573 l-101 -26 -1171 7 c-1128 7
-1173 6 -1200 -12 -16 -10 -26 -13 -22 -8 3 6 250 438 548 960 299 523 710
1243 915 1600 357 623 1559 2726 2187 3824 165 288 302 530 305 537 4 12 -380
14 -2396 14 l-2401 0 1 -1047 0 -1048 45 155 c139 484 290 889 419 1126 153
280 550 521 1141 694 l102 30 920 0 c507 0 923 -4 926 -8 4 -7 -147 -269 -509
-882 -112 -191 -542 -924 -1410 -2405 -103 -176 -218 -372 -255 -435 -251
-426 -859 -1464 -1085 -1850 -114 -195 -252 -429 -305 -520 -268 -454 -441
-752 -438 -755 2 -1 628 -6 1393 -9 765 -3 1967 -9 2673 -12 l1282 -6 0 111 0
111 93 -63 c176 -121 329 -191 497 -229 126 -28 368 -32 485 -9 649 128 1216
771 1544 1748 133 397 216 807 263 1308 20 214 17 854 -5 1075 -97 963 -377
1763 -816 2327 -266 343 -573 562 -921 655 -98 26 -410 35 -511 14z m432 -42
c45 -8 117 -26 158 -40 l76 -24 63 -103 c84 -134 246 -466 315 -642 582 -1483
621 -3558 96 -5128 -118 -355 -276 -693 -451 -963 l-58 -91 -75 -22 c-222 -66
-459 -65 -681 5 -48 15 -53 20 -111 112 -137 220 -233 410 -337 669 l-58 143
4 489 3 489 -26 -126 c-15 -70 -45 -191 -68 -269 -22 -78 -41 -146 -42 -150
-3 -36 -73 241 -123 482 -202 985 -213 2146 -30 3150 119 651 301 1202 555
1676 65 121 164 279 183 291 15 10 160 48 216 58 83 14 304 11 391 -6z"/>
</g>
</svg>
