<svg width="64" height="59" viewBox="0 0 64 59" fill="none" xmlns="http://www.w3.org/2000/svg">
<ellipse cx="32" cy="29.5" rx="32" ry="29.5" fill="#374151"/>
<path d="M14.8124 14.0108C14.2487 14.1239 13.7439 14.5133 13.4091 15.0932C13.0743 15.6731 12.9369 16.3961 13.027 17.1031C13.1172 17.8101 13.4277 18.4432 13.89 18.8632C14.3524 19.2831 14.9288 19.4555 15.4925 19.3423H21.8687L22.2512 20.6752L23.9941 27.3396L25.7369 34.0041C25.9069 34.6972 26.6295 35.3369 27.1821 35.3369H42.0599C42.655 35.3369 43.3351 34.6972 43.5052 34.0041L46.9483 20.6752C47.1183 19.9821 46.8633 19.3423 46.2682 19.3423H27.3947L25.7794 15.5036C25.6073 15.063 25.3417 14.6905 25.0117 14.4271C24.6817 14.1638 24.3001 14.0197 23.909 14.0108L15.4075 14.0108C15.2802 13.9964 15.1522 13.9964 15.0249 14.0108C14.94 14.0044 14.8548 14.0044 14.7699 14.0108L14.8124 14.0108ZM28.2448 40.6685C27.0546 40.6685 26.1195 41.8414 26.1195 43.3342C26.1195 44.8271 27.0546 46 28.2448 46C29.4351 46 30.3702 44.8271 30.3702 43.3342C30.3702 41.8414 29.4351 40.6685 28.2448 40.6685ZM40.9972 40.6685C39.807 40.6685 38.8718 41.8414 38.8718 43.3342C38.8718 44.8271 39.807 46 40.9972 46C42.1874 46 43.1226 44.8271 43.1226 43.3342C43.1226 41.8414 42.1874 40.6685 40.9972 40.6685Z" fill="white"/>
</svg>
