<svg width="64" height="59" viewBox="0 0 64 59" fill="none" xmlns="http://www.w3.org/2000/svg">
<ellipse cx="32" cy="29.5" rx="32" ry="29.5" fill="#171717"/>
<path d="M30.2165 13V17.1531H27.1507C24.3709 17.1531 22.0409 19.5203 22.0409 22.3444V24.4209C22.0409 27.245 23.8395 29.5707 26.4966 30.2767L36.9614 33.0177C37.5337 33.1838 38.3513 34.2221 38.3513 34.8451V36.9216C38.3513 37.503 37.9016 37.9599 37.3293 37.9599H27.1098C26.6192 37.9599 26.2513 37.7937 26.0878 37.7107V33.8068H22V37.9599C22 39.3719 22.8176 40.5763 23.7986 41.1992C24.7388 41.8637 25.9243 42.1129 27.1098 42.1129H30.1756V46.266H34.2635V42.1129H37.3293C40.1499 42.1129 42.4391 39.7872 42.4391 36.9216V34.8451C42.4391 32.021 40.6405 29.6953 37.9834 28.9893L27.5186 26.2482C26.9463 26.0821 26.1287 25.0439 26.1287 24.4209V22.3444C26.1287 21.7629 26.5784 21.3061 27.1507 21.3061H37.3702C37.8199 21.3061 38.2287 21.4722 38.3922 21.5553V25.4592H42.48V21.3061C42.48 19.8941 41.6624 18.6897 40.6814 18.0667C39.7412 17.4022 38.5557 17.1531 37.3702 17.1531H34.3043V13L30.2165 13Z" fill="white"/>
</svg>
