<svg width="64" height="59" viewBox="0 0 64 59" fill="none" xmlns="http://www.w3.org/2000/svg">
<ellipse cx="32" cy="29.5" rx="32" ry="29.5" fill="#1E293B"/>
<path d="M29.1461 13C27.2921 13 25.7753 14.6875 25.7753 16.75V20.5H19.3371C19.1348 20.5 19.0337 20.65 19.0337 20.8375V29.875C19.0337 30.925 19.7753 31.75 20.7191 31.75H44.3146C45.2584 31.75 46 30.925 46 29.875V20.8375C46 20.6125 45.8652 20.5 45.6966 20.5H39.2584V16.75C39.2584 14.6875 37.7416 13 35.8876 13H29.1461ZM29.1461 16.75H35.8876V20.5H29.1461V16.75ZM19.0337 35.1625V42.6625C19.0337 42.85 19.1685 43 19.3371 43H45.6629C45.8315 43 45.9663 42.85 45.9663 42.6625V35.1625C45.427 35.3875 44.8876 35.5 44.2809 35.5H20.6854C20.0787 35.5 19.5393 35.35 19 35.1625H19.0337Z" fill="white"/>
</svg>
